<?xml version="1.0" standalone="no"?>
<!DOCTYPE svg PUBLIC "-//W3C//DTD SVG 20010904//EN"
 "http://www.w3.org/TR/2001/REC-SVG-20010904/DTD/svg10.dtd">
<svg version="1.0" xmlns="http://www.w3.org/2000/svg"
 width="404.000000pt" height="404.000000pt" viewBox="0 0 404.000000 404.000000"
 preserveAspectRatio="xMidYMid meet">

<g transform="translate(0.000000,404.000000) scale(0.100000,-0.100000)"
fill="#000000" stroke="none">
<path d="M0 2020 l0 -2020 74 0 74 0 7 55 c7 59 21 71 31 29 11 -43 23 -5 14
46 -6 43 -7 44 -18 20 -9 -22 -11 -17 -11 35 -1 74 16 145 30 124 5 -8 8 -33
7 -56 -1 -23 1 -45 4 -48 10 -10 16 100 6 112 -13 16 -5 380 10 395 6 6 8 17
5 24 -13 35 49 299 94 394 96 206 107 225 130 223 15 -2 38 12 69 42 38 36 45
48 40 67 -16 55 -23 127 -17 178 5 38 2 62 -7 76 -28 47 -27 229 3 380 6 28
67 47 91 29 16 -11 17 -19 5 -85 -9 -46 -11 -101 -6 -154 7 -90 4 -98 -49
-110 -26 -7 -28 -10 -23 -44 5 -32 62 -158 78 -172 3 -3 8 -13 12 -23 10 -27
36 -32 71 -11 17 10 96 55 176 99 l145 81 -3 70 c-2 38 -10 146 -17 239 -21
245 -116 1626 -130 1898 l-7 127 -192 -2 -191 -3 -3 -28 c-2 -16 3 -38 11 -50
16 -25 31 -144 21 -170 -9 -24 -19 -22 -69 16 -56 41 -87 94 -79 135 3 17 1
46 -6 66 l-11 35 -185 0 -184 1 0 -2020z m244 1857 c22 -143 15 -162 -51 -127
-26 14 -57 35 -69 47 -23 23 -41 90 -27 104 8 8 109 17 130 11 7 -2 15 -18 17
-35z m251 -239 c25 -11 37 -58 15 -58 -22 0 -60 33 -60 51 0 22 9 23 45 7z
m-283 -83 c52 -50 78 -100 64 -123 -3 -5 -1 -37 4 -71 13 -93 3 -109 -45 -68
-90 74 -84 63 -95 176 -17 169 -15 170 72 86z m331 -72 c12 -15 16 -50 19
-178 3 -146 1 -164 -17 -190 -25 -38 -22 -61 26 -214 40 -129 49 -211 30 -278
-7 -25 -5 -40 10 -67 14 -27 19 -56 19 -115 0 -44 -4 -83 -10 -86 -14 -8 -94
48 -120 85 -16 22 -20 43 -19 87 0 32 -2 72 -6 88 -5 24 -2 35 19 54 33 31 33
60 1 97 -14 16 -29 40 -32 54 -9 30 -8 109 2 166 5 29 2 50 -8 70 -27 53 -30
159 -7 269 12 55 24 114 27 130 9 46 38 59 66 28z m-300 -389 c45 -29 59 -43
51 -56 -8 -12 -19 -10 -40 11 -11 10 -30 24 -42 30 -12 6 -22 18 -22 26 0 20
4 19 53 -11z m9 -186 c-17 -17 -25 -19 -34 -10 -9 9 -6 14 13 21 39 16 45 12
21 -11z m81 -202 c3 -8 9 -45 12 -84 7 -65 6 -70 -13 -76 -24 -8 -80 18 -89
40 -6 16 15 74 27 74 4 0 13 14 20 30 13 32 34 39 43 16z m30 -331 c12 -59 5
-109 -15 -113 -28 -5 -75 45 -81 86 -6 48 16 74 57 70 26 -3 31 -8 39 -43z
m233 -140 c4 -8 1 -22 -6 -30 -13 -15 -50 -21 -50 -7 0 4 -3 17 -6 30 -6 19
-3 22 25 22 19 0 34 -6 37 -15z m-241 -161 c23 -15 25 -22 23 -88 0 -39 4 -81
9 -91 12 -23 7 -45 -11 -45 -29 0 -56 46 -66 115 -18 129 -11 146 45 109z"/>
<path d="M1934 3750 c-97 -8 -199 -33 -224 -55 -8 -7 -39 -25 -68 -39 -55 -28
-178 -123 -223 -172 -49 -54 -96 -129 -153 -245 -69 -137 -79 -196 -61 -348
12 -91 50 -221 80 -267 16 -25 11 -34 -20 -34 -44 0 -84 -76 -56 -105 5 -6 11
-21 14 -35 4 -21 4 -20 6 7 1 31 16 51 28 39 10 -10 20 -96 11 -90 -4 3 -8 -4
-8 -15 0 -10 -4 -21 -9 -23 -13 -4 7 -118 25 -145 7 -12 14 -31 14 -41 0 -11
7 -25 15 -32 17 -14 20 -61 4 -77 -8 -8 -2 -19 19 -41 17 -17 36 -48 42 -69 7
-21 16 -42 20 -48 4 -5 10 -23 14 -39 5 -22 4 -27 -7 -23 -19 7 -41 -8 -32
-22 4 -7 19 -11 33 -9 19 2 28 -2 30 -14 2 -10 -1 -18 -7 -18 -6 0 -11 5 -11
12 0 6 -7 4 -18 -5 -10 -10 -22 -17 -26 -17 -4 0 -17 -9 -29 -21 l-22 -20 25
9 c14 5 33 8 43 6 10 -1 21 4 24 12 12 32 21 9 27 -74 8 -103 16 -123 40 -99
19 18 22 58 4 55 -13 -3 -27 56 -26 107 0 23 2 20 9 -14 12 -62 20 -74 15 -23
-5 51 5 54 27 6 12 -24 15 -47 11 -70 -5 -26 -3 -34 8 -34 10 0 21 -22 32 -62
20 -78 47 -202 54 -248 2 -19 11 -40 20 -46 12 -9 12 -14 2 -31 -15 -23 -6
-57 13 -50 6 2 11 12 10 22 -2 30 22 -4 41 -58 10 -26 23 -53 30 -60 7 -6 15
-20 19 -29 3 -10 16 -18 27 -18 12 0 18 5 15 10 -3 6 3 10 14 10 15 0 19 -4
14 -17 -4 -10 -2 -14 4 -10 6 4 23 3 38 -3 36 -14 121 -15 137 -3 7 6 49 11
93 12 94 2 149 15 176 42 10 10 28 19 39 19 12 0 39 9 61 20 34 18 40 19 45 5
4 -8 3 -27 0 -43 -6 -26 -6 -26 9 -8 8 11 15 36 15 56 0 24 10 52 29 81 16 24
27 47 24 52 -9 15 -4 110 6 120 6 6 11 23 11 38 0 15 4 39 10 53 6 17 6 26 0
26 -12 0 -13 40 -1 59 12 19 31 -17 31 -58 0 -16 5 -33 10 -36 6 -3 10 -1 10
5 0 6 5 8 11 4 11 -6 8 -74 -5 -149 -5 -27 -5 -27 3 -5 6 17 9 20 10 8 1 -17
21 -26 21 -10 0 4 3 36 5 72 3 36 0 95 -6 133 -13 69 -9 88 14 69 7 -6 18 -7
25 -3 14 8 6 41 -10 41 -5 0 -6 5 -3 11 4 5 -1 19 -12 31 -10 11 -19 32 -20
47 -1 14 -3 37 -5 51 -2 20 2 25 20 26 12 1 26 -4 30 -11 7 -12 102 -48 109
-41 2 2 -20 12 -49 23 -38 13 -52 23 -50 35 1 9 -6 19 -18 23 -26 8 -17 25 10
18 23 -6 27 12 5 24 -13 8 -12 16 5 66 11 31 20 63 20 72 0 8 16 22 36 30 26
11 34 19 30 30 -3 9 -2 13 4 10 6 -3 15 6 20 20 14 36 13 42 -4 19 -8 -10 -17
-16 -20 -13 -4 3 2 17 13 31 11 13 24 51 30 84 22 121 30 185 25 202 -5 14 -4
15 5 2 15 -21 14 94 -2 139 -12 33 -23 44 -60 55 -18 6 -18 7 1 33 11 16 23
39 27 53 4 14 11 30 15 35 26 33 43 137 43 260 1 123 -1 134 -32 215 -40 102
-55 120 -111 127 -38 5 -44 10 -61 49 -10 24 -23 62 -29 85 -7 23 -18 52 -27
65 -23 36 -115 100 -183 129 -35 15 -72 33 -84 40 -62 40 -218 59 -372 45z
m596 -195 c13 -14 19 -25 14 -25 -8 1 -50 50 -41 50 2 0 14 -11 27 -25z m210
-245 c4 0 10 -7 14 -15 6 -16 -9 -11 -44 16 -13 9 -12 10 3 5 10 -3 22 -6 27
-6z m-331 -117 c6 -10 11 -14 11 -10 0 4 6 2 14 -5 8 -7 10 -15 6 -18 -5 -3
-5 -25 0 -50 9 -51 6 -60 -21 -60 -27 0 -24 -18 4 -22 19 -3 22 -10 25 -55 2
-37 -1 -53 -9 -53 -7 0 -10 -2 -7 -5 10 -10 38 7 38 23 0 8 3 12 7 9 3 -4 0
-18 -7 -32 -13 -24 -12 -28 13 -51 15 -13 29 -37 32 -52 14 -64 28 -108 39
-114 16 -11 -28 -10 -58 2 -29 11 -128 2 -120 -11 3 -5 -2 -9 -10 -9 -8 0 -17
4 -20 8 -7 12 -91 6 -116 -8 -11 -6 -20 -7 -20 -3 0 4 -5 2 -11 -4 -6 -6 -18
-9 -25 -6 -10 4 -14 -3 -14 -21 0 -19 -5 -26 -20 -26 -11 0 -25 -11 -33 -27
-18 -38 -21 -103 -5 -105 21 -2 51 -5 83 -7 25 -1 27 -3 13 -11 -11 -7 -32 -7
-60 0 -55 12 -61 12 -53 0 4 -6 -8 -10 -29 -10 -19 0 -36 4 -38 10 -2 6 -18 6
-42 0 -41 -9 -56 -6 -56 11 0 5 17 9 38 9 24 0 32 3 24 9 -8 4 -13 10 -12 12
3 7 -33 83 -49 102 -8 9 -23 17 -34 17 -12 0 -30 9 -42 20 -17 16 -45 22 -136
31 -62 6 -117 15 -120 21 -4 6 -20 5 -48 -3 -22 -7 -43 -10 -46 -7 -16 16 44
108 70 108 12 0 45 62 44 83 0 7 -4 3 -9 -8 -8 -19 -9 -19 -9 1 -1 12 5 34 13
49 8 15 12 34 9 42 -3 8 0 19 8 24 11 7 11 9 -3 9 -11 0 -15 6 -11 20 3 11 10
20 15 20 6 0 8 -7 4 -15 -7 -19 4 -19 32 1 12 8 20 19 17 24 -10 16 11 19 146
21 74 0 139 5 145 10 5 4 26 10 46 13 20 2 47 10 60 17 22 12 23 11 6 -8 -26
-29 -22 -36 10 -16 27 17 27 17 12 -2 -8 -11 1 -6 20 10 56 47 171 99 199 90
12 -3 21 0 25 10 8 21 53 19 65 -2z m-812 -235 c-3 -8 -6 -5 -6 6 -1 11 2 17
5 13 3 -3 4 -12 1 -19z m-21 -54 c-3 -8 -9 -14 -14 -14 -10 0 -8 27 4 55 8 19
9 19 12 -3 2 -13 1 -30 -2 -38z m112 -323 c2 -1 0 -6 -3 -11 -10 -16 -93 -8
-87 8 4 11 44 12 90 3z m-435 -17 c11 -11 -3 -24 -18 -18 -8 4 -12 10 -9 15 6
11 18 12 27 3z m580 -1 c-13 -2 -33 -2 -45 0 -13 2 -3 4 22 4 25 0 35 -2 23
-4z m909 -20 c-3 -15 -11 -34 -19 -41 -15 -16 -17 -9 -4 16 5 9 12 25 15 35 8
27 14 20 8 -10z m-1042 -23 c0 -5 -4 -10 -10 -10 -5 0 -10 5 -10 10 0 6 5 10
10 10 6 0 10 -4 10 -10z m115 -40 c3 -5 -1 -10 -10 -10 -9 0 -26 -10 -38 -22
-15 -15 -32 -22 -50 -20 -26 3 -39 22 -15 22 19 0 48 32 48 52 0 17 2 18 29 3
17 -8 33 -19 36 -25z m-319 20 c19 -8 24 -14 17 -21 -16 -16 -67 -7 -71 14 -4
20 14 22 54 7z m166 -44 c11 -8 17 -19 13 -25 -10 -17 -65 26 -65 50 0 18 2
19 15 5 9 -9 25 -22 37 -30z m637 14 c26 -27 32 -29 55 -19 14 7 28 20 31 31
8 23 25 24 25 0 0 -23 -19 -42 -42 -42 -10 0 -18 -5 -18 -11 0 -8 -4 -8 -12
-1 -7 5 -46 8 -85 7 -40 -2 -75 1 -78 6 -4 5 17 9 47 10 47 0 50 2 26 11 -30
10 -36 23 -15 31 25 10 36 6 66 -23z m376 12 c-16 -2 -36 -9 -43 -14 -9 -8
-16 -8 -24 0 -16 16 25 30 66 23 l31 -6 -30 -3z m92 -34 c-3 -8 -6 -5 -6 6 -1
11 2 17 5 13 3 -3 4 -12 1 -19z m-902 -40 c4 -30 9 -36 23 -31 9 4 20 11 24
17 5 7 8 5 8 -5 0 -9 9 -24 19 -33 19 -17 20 -17 34 6 8 12 21 37 28 53 10 21
22 31 41 33 43 5 66 -14 82 -69 15 -48 75 -151 96 -164 18 -11 10 24 -8 37
-10 7 -22 26 -26 43 -4 16 -13 33 -19 37 -14 9 2 28 26 32 8 1 22 8 30 15 13
10 22 9 48 -4 32 -17 112 -17 237 1 54 8 75 -8 70 -52 -3 -25 -1 -31 12 -26
13 5 13 3 1 -11 -13 -16 -12 -17 14 -7 16 6 35 18 42 28 10 11 12 12 7 2 -14
-30 -37 -49 -65 -55 -35 -8 -37 -30 -7 -62 20 -21 20 -24 4 -41 -9 -11 -14
-26 -10 -35 3 -9 -3 -24 -15 -36 -12 -12 -21 -27 -21 -35 0 -16 -53 -46 -81
-46 -33 0 -88 -34 -89 -54 0 -19 -1 -19 -22 1 -33 29 -98 49 -108 33 -10 -16
-40 -5 -40 14 0 8 8 21 18 28 41 31 59 78 46 121 -8 24 -21 21 -21 -5 -1 -13
-1 -28 -2 -35 -2 -18 -35 -25 -64 -14 -20 8 -27 7 -31 -5 -7 -17 -66 -44 -97
-44 -12 0 -36 11 -54 24 -23 18 -41 23 -68 21 -27 -3 -44 2 -63 18 -22 19 -25
28 -19 59 5 24 14 40 26 43 10 4 19 10 19 16 0 5 -15 2 -33 -7 -31 -15 -34
-21 -36 -62 -1 -29 6 -56 18 -78 21 -36 19 -44 -15 -44 -13 0 -25 -4 -28 -9
-3 -4 -20 -11 -38 -15 -17 -3 -40 -14 -50 -23 -10 -9 -21 -13 -25 -9 -9 8 -33
-50 -33 -79 0 -13 12 -38 26 -55 21 -24 24 -34 15 -43 -10 -9 -12 -9 -9 3 2
10 -4 14 -19 13 -20 -2 -22 1 -16 27 3 19 1 30 -6 30 -6 0 -11 -7 -11 -16 0
-14 -2 -14 -16 -3 -10 8 -12 15 -5 17 6 2 8 19 5 46 -6 38 -4 43 20 54 16 7
26 20 26 32 0 24 -8 25 -39 4 -21 -15 -23 -15 -21 2 5 43 0 50 -20 26 -16 -20
-22 -21 -39 -10 -12 7 -21 18 -21 24 0 7 -7 14 -15 18 -8 3 -15 12 -15 20 0 8
-6 21 -14 29 -8 8 -17 29 -20 48 -3 18 -10 35 -15 37 -6 2 -11 13 -12 25 0 21
-1 21 -10 2 -8 -16 -8 -15 -4 8 3 16 1 35 -5 42 -6 8 -10 26 -8 41 4 33 7 34
182 40 87 3 139 9 159 19 17 8 35 15 41 15 7 0 12 9 12 21 0 14 -5 19 -17 16
-12 -3 -16 0 -12 9 4 12 86 25 90 14 1 -3 4 -22 8 -42z m261 25 c-10 -10 -19
5 -10 18 6 11 8 11 12 0 2 -7 1 -15 -2 -18z m541 -10 c-3 -10 -5 -4 -5 12 0
17 2 24 5 18 2 -7 2 -21 0 -30z m-57 1 c0 -22 -21 -27 -35 -8 -20 27 -18 32
10 26 14 -2 25 -10 25 -18z m-660 -20 c0 -8 -5 -12 -10 -9 -6 4 -8 11 -5 16 9
14 15 11 15 -7z m-285 -12 c-3 -3 -11 0 -18 7 -9 10 -8 11 6 5 10 -3 15 -9 12
-12z m510 8 c3 -5 1 -10 -4 -10 -6 0 -11 5 -11 10 0 6 2 10 4 10 3 0 8 -4 11
-10z m-890 -94 c5 -59 -8 -70 -19 -15 -5 29 2 85 10 76 2 -2 6 -29 9 -61z
m705 -337 c0 -11 5 -17 10 -14 6 4 8 11 5 16 -4 5 -3 9 2 9 14 -1 43 -27 43
-38 0 -6 7 -9 16 -5 8 3 13 12 10 19 -3 8 -2 14 3 14 5 0 12 -11 15 -25 5 -21
10 -24 36 -18 24 4 30 2 30 -12 0 -10 3 -15 7 -12 7 7 33 -11 33 -23 0 -4 -21
-3 -47 2 -27 5 -69 6 -96 3 -28 -3 -56 -1 -69 6 -12 6 -55 14 -95 18 l-74 6
22 24 c20 22 23 22 35 7 10 -14 14 -14 25 -4 23 22 63 47 77 47 6 1 12 -8 12
-20z m-17 -148 c16 -2 6 -21 -12 -21 -26 0 -51 10 -51 20 0 7 20 8 63 1z
m-187 -61 c27 -43 49 -65 76 -77 21 -9 38 -21 38 -26 0 -4 5 -5 12 -1 6 4 17
-1 25 -12 11 -15 26 -19 73 -18 32 0 65 6 72 12 8 6 35 16 62 22 48 11 106 45
106 64 1 22 40 58 56 52 19 -7 12 -54 -12 -72 -7 -6 -14 -17 -14 -25 0 -8 -7
-27 -15 -42 -8 -16 -16 -42 -17 -58 -1 -16 -8 -29 -15 -29 -7 0 -13 -7 -13
-16 0 -14 -3 -14 -15 -4 -11 9 -15 9 -15 1 0 -17 -43 -31 -58 -18 -14 11 -62
-6 -62 -22 0 -16 -135 3 -146 20 -3 5 -21 9 -40 9 -19 0 -34 4 -34 10 0 5 -7
7 -15 4 -9 -4 -17 1 -21 12 -4 11 -16 26 -27 35 -11 9 -21 25 -22 35 -1 11
-15 47 -31 80 -28 58 -29 63 -15 93 8 17 18 31 22 31 3 0 24 -27 45 -60z m231
44 c-3 -3 -12 -4 -19 -1 -8 3 -5 6 6 6 11 1 17 -2 13 -5z m23 -26 c52 0 90 -2
83 -4 -7 -3 -10 -11 -7 -18 8 -21 -46 -37 -107 -33 -41 3 -62 10 -82 29 -33
31 -34 42 -4 32 12 -4 65 -7 117 -6z m544 -94 c3 -9 6 -24 6 -35 0 -10 5 -19
11 -19 5 0 7 -4 4 -10 -12 -19 -33 -11 -28 10 3 11 0 20 -6 20 -6 0 -11 11
-11 25 0 28 15 34 24 9z m-15 -161 c1 -7 -3 -13 -9 -13 -5 0 -10 15 -9 33 0
27 2 29 9 12 5 -11 9 -26 9 -32z"/>
<path d="M2422 2876 c1 -10 8 -17 13 -17 15 1 12 24 -3 29 -9 3 -13 -2 -10
-12z"/>
<path d="M2453 2845 c-13 -15 -17 -35 -7 -35 10 0 34 28 34 39 0 15 -12 13
-27 -4z"/>
<path d="M2482 2808 c-7 -7 -12 -16 -12 -21 0 -5 7 -1 16 8 9 9 14 18 12 20
-2 3 -10 -1 -16 -7z"/>
<path d="M1765 2119 c-11 -17 1 -21 15 -4 8 9 8 15 2 15 -6 0 -14 -5 -17 -11z"/>
<path d="M1670 2040 c0 -13 18 -22 24 -11 3 5 -1 11 -9 15 -8 3 -15 1 -15 -4z"/>
<path d="M2705 1830 c3 -4 14 -10 25 -13 11 -3 18 -2 15 3 -3 4 -14 10 -25 13
-11 3 -18 2 -15 -3z"/>
<path d="M2794 1795 c11 -8 25 -15 30 -15 6 0 2 7 -8 15 -11 8 -25 15 -30 15
-6 0 -2 -7 8 -15z"/>
<path d="M1265 1730 c-3 -5 3 -10 14 -10 11 0 23 5 26 10 3 6 -3 10 -14 10
-11 0 -23 -4 -26 -10z"/>
<path d="M2784 1725 c11 -8 27 -15 35 -15 13 1 12 4 -3 15 -11 8 -27 15 -35
15 -13 -1 -12 -4 3 -15z"/>
<path d="M1193 1705 c-3 -9 -2 -19 1 -23 8 -8 38 10 44 26 6 18 -38 14 -45 -3z"/>
<path d="M2860 1696 c0 -2 9 -6 20 -9 11 -3 18 -1 14 4 -5 9 -34 13 -34 5z"/>
<path d="M1131 1681 c-8 -5 -9 -11 -3 -15 13 -8 42 3 42 15 0 11 -21 11 -39 0z"/>
<path d="M2760 1681 c0 -11 31 -24 39 -16 3 3 -1 10 -9 15 -19 12 -30 12 -30
1z"/>
<path d="M2660 1669 c0 -15 18 -19 23 -6 3 8 -1 14 -9 14 -8 0 -14 -4 -14 -8z"/>
<path d="M1075 1650 c-4 -6 -18 -15 -31 -20 -13 -5 -24 -14 -24 -20 0 -7 6 -8
18 -1 34 19 57 39 50 46 -3 3 -9 1 -13 -5z"/>
<path d="M2672 1626 c1 -10 8 -17 13 -17 15 1 12 24 -3 29 -9 3 -13 -2 -10
-12z"/>
<path d="M2765 1630 c6 -10 3 -12 -14 -7 -19 5 -21 3 -9 -11 18 -23 30 -32 47
-32 11 0 11 4 -2 18 -10 10 -14 21 -11 24 3 3 0 9 -7 14 -8 5 -10 3 -4 -6z"/>
<path d="M1417 1610 c3 -11 7 -20 9 -20 2 0 4 9 4 20 0 11 -4 20 -9 20 -5 0
-7 -9 -4 -20z"/>
<path d="M1253 1593 c-7 -2 -13 -12 -13 -20 0 -10 6 -13 16 -9 9 3 20 6 25 6
5 0 9 7 9 15 0 15 -14 18 -37 8z"/>
<path d="M1335 1579 c-4 -6 -5 -12 -2 -15 2 -3 7 2 10 11 7 17 1 20 -8 4z"/>
<path d="M2829 1561 c13 -12 28 -21 35 -21 12 0 -5 14 -39 31 -16 8 -15 6 4
-10z"/>
<path d="M1465 1547 c-5 -18 -3 -33 4 -40 16 -16 20 -6 12 33 l-8 35 -8 -28z"/>
<path d="M1187 1543 c-4 -3 -7 -11 -7 -17 0 -6 5 -5 12 2 6 6 9 14 7 17 -3 3
-9 2 -12 -2z"/>
<path d="M2908 1523 c7 -3 16 -2 19 1 4 3 -2 6 -13 5 -11 0 -14 -3 -6 -6z"/>
<path d="M3163 1513 c9 -9 20 -13 24 -9 4 4 1 11 -7 16 -25 16 -35 11 -17 -7z"/>
<path d="M1087 1513 c-4 -3 -7 -13 -7 -21 0 -8 -7 -20 -16 -27 -30 -22 10 -25
45 -4 30 18 34 46 5 35 -8 -3 -11 0 -7 10 5 14 -8 19 -20 7z"/>
<path d="M1322 1495 c0 -16 2 -22 5 -12 2 9 2 23 0 30 -3 6 -5 -1 -5 -18z"/>
<path d="M2830 1485 c0 -19 5 -35 10 -35 6 0 10 16 10 35 0 19 -4 35 -10 35
-5 0 -10 -16 -10 -35z"/>
<path d="M2940 1510 c0 -5 9 -10 20 -10 11 0 20 -4 20 -10 0 -5 7 -10 15 -10
24 0 17 14 -12 28 -33 15 -43 15 -43 2z"/>
<path d="M795 1500 c-8 -13 5 -13 25 0 13 8 13 10 -2 10 -9 0 -20 -4 -23 -10z"/>
<path d="M3240 1470 c8 -5 20 -10 25 -10 6 0 3 5 -5 10 -8 5 -19 10 -25 10 -5
0 -3 -5 5 -10z"/>
<path d="M2986 1462 c-6 -10 12 -72 22 -72 4 0 7 5 6 10 -1 6 -2 24 -2 40 -2
28 -15 40 -26 22z"/>
<path d="M1474 1433 c3 -16 8 -45 12 -65 10 -57 24 -45 18 15 -7 66 -11 77
-24 77 -7 0 -9 -11 -6 -27z"/>
<path d="M1095 1409 c-10 -58 4 -248 25 -354 10 -49 24 -124 31 -165 6 -41 14
-70 16 -63 2 6 -1 42 -7 80 -30 191 -42 309 -42 421 -1 123 -10 156 -23 81z"/>
<path d="M1249 1446 c-11 -11 4 -86 17 -86 15 0 17 12 8 59 -6 29 -14 37 -25
27z"/>
<path d="M2834 1424 c3 -9 6 -18 6 -20 0 -2 5 -4 10 -4 6 0 10 9 10 20 0 12
-7 20 -16 20 -11 0 -14 -5 -10 -16z"/>
<path d="M3123 1405 c-1 -24 3 -35 14 -35 10 0 13 9 10 32 -5 44 -23 46 -24 3z"/>
<path d="M3300 1436 c0 -2 8 -10 18 -17 15 -13 16 -12 3 4 -13 16 -21 21 -21
13z"/>
<path d="M987 1423 c-13 -12 -7 -33 8 -33 8 0 15 9 15 20 0 20 -11 26 -23 13z"/>
<path d="M1320 1415 c0 -8 5 -15 10 -15 6 0 10 7 10 15 0 8 -4 15 -10 15 -5 0
-10 -7 -10 -15z"/>
<path d="M3345 1401 c6 -11 65 -42 65 -34 0 2 -10 13 -22 24 -24 19 -54 26
-43 10z"/>
<path d="M1456 1385 c4 -8 8 -15 10 -15 2 0 4 7 4 15 0 8 -4 15 -10 15 -5 0
-7 -7 -4 -15z"/>
<path d="M1131 1374 c0 -11 3 -14 6 -6 3 7 2 16 -1 19 -3 4 -6 -2 -5 -13z"/>
<path d="M1320 1370 c0 -11 4 -20 9 -20 5 0 7 -9 4 -20 -3 -11 0 -20 6 -20 6
0 11 17 11 40 0 29 -4 40 -15 40 -8 0 -15 -9 -15 -20z"/>
<path d="M2842 1378 c2 -6 10 -14 16 -16 7 -2 10 2 6 12 -7 18 -28 22 -22 4z"/>
<path d="M990 1365 c0 -8 7 -15 15 -15 8 0 15 7 15 15 0 8 -7 15 -15 15 -8 0
-15 -7 -15 -15z"/>
<path d="M2811 1364 c0 -11 3 -14 6 -6 3 7 2 16 -1 19 -3 4 -6 -2 -5 -13z"/>
<path d="M830 1350 c0 -5 5 -10 10 -10 6 0 10 5 10 10 0 6 -4 10 -10 10 -5 0
-10 -4 -10 -10z"/>
<path d="M1260 1335 c0 -8 5 -15 10 -15 6 0 10 7 10 15 0 8 -4 15 -10 15 -5 0
-10 -7 -10 -15z"/>
<path d="M646 1324 c-18 -18 -20 -24 -6 -24 5 0 14 9 20 20 13 24 7 26 -14 4z"/>
<path d="M3010 1315 c0 -14 4 -25 9 -25 4 0 6 11 3 25 -2 14 -6 25 -8 25 -2 0
-4 -11 -4 -25z"/>
<path d="M3120 1316 c0 -14 5 -28 10 -31 6 -4 10 7 10 24 0 17 -4 31 -10 31
-5 0 -10 -11 -10 -24z"/>
<path d="M2531 1304 c0 -11 3 -14 6 -6 3 7 2 16 -1 19 -3 4 -6 -2 -5 -13z"/>
<path d="M2692 1300 c0 -14 2 -19 5 -12 2 6 2 18 0 25 -3 6 -5 1 -5 -13z"/>
<path d="M2821 1315 c1 -19 18 -51 18 -35 0 8 -4 22 -9 30 -5 8 -9 11 -9 5z"/>
<path d="M3270 1305 c0 -8 5 -15 10 -15 6 0 10 7 10 15 0 8 -4 15 -10 15 -5 0
-10 -7 -10 -15z"/>
<path d="M2856 1283 c9 -39 20 -48 18 -15 -2 40 -3 42 -14 42 -6 0 -8 -11 -4
-27z"/>
<path d="M854 1274 c3 -9 6 -18 6 -20 0 -2 4 -4 9 -4 5 0 7 9 4 20 -3 11 -10
20 -15 20 -6 0 -7 -7 -4 -16z"/>
<path d="M1507 1283 c-12 -12 -7 -43 7 -43 9 0 12 8 8 25 -5 27 -6 28 -15 18z"/>
<path d="M2551 1274 c0 -11 3 -14 6 -6 3 7 2 16 -1 19 -3 4 -6 -2 -5 -13z"/>
<path d="M590 1265 c-7 -9 -8 -15 -2 -15 5 0 12 7 16 15 3 8 4 15 2 15 -2 0
-9 -7 -16 -15z"/>
<path d="M2582 1268 c6 -18 28 -21 28 -4 0 9 -7 16 -16 16 -9 0 -14 -5 -12
-12z"/>
<path d="M696 1262 c-3 -6 -1 -14 5 -17 14 -9 20 -2 10 14 -6 8 -11 9 -15 3z"/>
<path d="M1010 1260 c0 -5 5 -10 10 -10 6 0 10 5 10 10 0 6 -4 10 -10 10 -5 0
-10 -4 -10 -10z"/>
<path d="M1280 1259 c0 -5 -4 -7 -10 -4 -5 3 -10 0 -10 -8 0 -8 7 -17 15 -21
11 -4 15 1 15 19 0 14 -2 25 -5 25 -3 0 -5 -5 -5 -11z"/>
<path d="M3022 1230 c0 -19 2 -27 5 -17 2 9 2 25 0 35 -3 9 -5 1 -5 -18z"/>
<path d="M1340 1236 c0 -9 5 -16 10 -16 6 0 10 4 10 9 0 6 -4 13 -10 16 -5 3
-10 -1 -10 -9z"/>
<path d="M3122 1241 c-16 -10 -12 -53 6 -59 8 -2 12 8 12 32 0 40 0 39 -18 27z"/>
<path d="M2585 1223 c4 -10 7 -31 6 -46 -1 -17 3 -26 9 -22 5 3 10 24 10 46 0
29 -4 39 -16 39 -12 0 -14 -5 -9 -17z"/>
<path d="M2701 1187 c1 -32 5 -57 10 -57 9 0 4 98 -5 108 -3 3 -5 -20 -5 -51z"/>
<path d="M3162 1220 c0 -14 2 -19 5 -12 2 6 2 18 0 25 -3 6 -5 1 -5 -13z"/>
<path d="M3272 1218 c5 -32 28 -35 28 -4 0 17 -5 26 -16 26 -10 0 -14 -7 -12
-22z"/>
<path d="M2836 1188 c7 -46 11 -54 19 -46 9 8 -6 88 -16 88 -5 0 -6 -19 -3
-42z"/>
<path d="M2864 1208 c3 -13 6 -26 6 -30 0 -5 5 -8 10 -8 6 0 10 14 10 30 0 21
-5 30 -16 30 -12 0 -15 -6 -10 -22z"/>
<path d="M3092 1210 c0 -14 2 -19 5 -12 2 6 2 18 0 25 -3 6 -5 1 -5 -13z"/>
<path d="M3384 1215 c-8 -20 3 -48 16 -40 13 8 13 55 0 55 -6 0 -13 -7 -16
-15z"/>
<path d="M520 1205 c-7 -9 -11 -18 -8 -20 3 -3 11 1 18 10 7 9 11 18 8 20 -3
3 -11 -1 -18 -10z"/>
<path d="M1018 1205 c-8 -8 3 -55 13 -55 5 0 9 14 9 30 0 28 -9 38 -22 25z"/>
<path d="M3956 1191 c-14 -15 -16 -29 -10 -72 3 -30 13 -69 22 -87 13 -29 13
-41 2 -88 -15 -62 -6 -107 23 -112 40 -8 47 18 47 183 0 89 -4 165 -10 176
-14 24 -52 25 -74 0z"/>
<path d="M710 1181 c0 -22 15 -35 29 -27 13 9 1 46 -15 46 -8 0 -14 -9 -14
-19z"/>
<path d="M870 1185 c0 -8 10 -19 22 -26 18 -10 20 -9 15 6 -4 9 -7 21 -7 26 0
5 -7 9 -15 9 -8 0 -15 -7 -15 -15z"/>
<path d="M921 1184 c0 -11 3 -14 6 -6 3 7 2 16 -1 19 -3 4 -6 -2 -5 -13z"/>
<path d="M1512 1174 c2 -15 9 -29 16 -32 10 -3 13 4 10 24 -2 15 -9 29 -16 32
-10 3 -13 -4 -10 -24z"/>
<path d="M1268 1185 c-8 -8 3 -55 13 -55 5 0 9 14 9 30 0 28 -9 38 -22 25z"/>
<path d="M1351 1181 c-8 -5 -11 -16 -8 -25 10 -25 27 -19 27 9 0 28 0 28 -19
16z"/>
<path d="M1480 1176 c0 -8 4 -17 9 -20 5 -4 7 3 4 14 -6 23 -13 26 -13 6z"/>
<path d="M3512 1155 c0 -16 2 -22 5 -12 2 9 2 23 0 30 -3 6 -5 -1 -5 -18z"/>
<path d="M560 1152 c0 -19 19 -52 30 -52 15 0 12 12 -10 40 -11 14 -20 19 -20
12z"/>
<path d="M2880 1135 c0 -16 5 -37 10 -45 7 -12 10 -8 10 15 0 17 -5 37 -10 45
-7 12 -10 8 -10 -15z"/>
<path d="M382 1138 c-16 -16 -15 -28 2 -28 16 0 29 27 17 34 -4 3 -13 0 -19
-6z"/>
<path d="M1643 1136 c3 -8 9 -31 13 -50 3 -20 10 -36 14 -36 4 0 4 19 -1 43
-4 23 -8 45 -9 50 0 4 -5 7 -11 7 -6 0 -9 -6 -6 -14z"/>
<path d="M2532 1130 c0 -14 2 -19 5 -12 2 6 2 18 0 25 -3 6 -5 1 -5 -13z"/>
<path d="M3031 1134 c0 -11 3 -14 6 -6 3 7 2 16 -1 19 -3 4 -6 -2 -5 -13z"/>
<path d="M3120 1125 c0 -16 6 -25 16 -25 11 0 14 5 10 16 -3 9 -6 20 -6 25 0
5 -4 9 -10 9 -5 0 -10 -11 -10 -25z"/>
<path d="M3367 1137 c-4 -10 -7 -26 -7 -35 1 -15 2 -15 11 1 6 10 9 25 7 35
-3 16 -4 15 -11 -1z"/>
<path d="M2496 1123 c-6 -14 -5 -15 5 -6 7 7 10 15 7 18 -3 3 -9 -2 -12 -12z"/>
<path d="M2840 1114 c0 -8 5 -12 10 -9 6 3 10 10 10 16 0 5 -4 9 -10 9 -5 0
-10 -7 -10 -16z"/>
<path d="M734 1104 c3 -8 6 -20 6 -25 0 -5 5 -9 10 -9 16 0 11 37 -6 44 -12 5
-15 2 -10 -10z"/>
<path d="M903 1029 c4 -95 6 -111 26 -162 6 -16 12 -40 12 -55 1 -16 3 -20 6
-10 2 10 -3 55 -11 101 -9 46 -16 111 -16 145 0 33 -5 64 -11 67 -7 5 -9 -22
-6 -86z"/>
<path d="M1030 1098 c0 -7 5 -20 10 -28 8 -12 10 -9 10 13 0 15 -4 27 -10 27
-5 0 -10 -6 -10 -12z"/>
<path d="M3530 1095 c0 -8 4 -15 10 -15 5 0 7 7 4 15 -4 8 -8 15 -10 15 -2 0
-4 -7 -4 -15z"/>
<path d="M1520 1080 c0 -11 6 -20 14 -20 9 0 12 7 9 20 -3 11 -9 20 -14 20 -5
0 -9 -9 -9 -20z"/>
<path d="M2582 1075 c0 -16 2 -22 5 -12 2 9 2 23 0 30 -3 6 -5 -1 -5 -18z"/>
<path d="M1277 1070 c3 -11 9 -20 14 -20 5 0 9 9 9 20 0 11 -6 20 -14 20 -9 0
-12 -7 -9 -20z"/>
<path d="M1366 1082 c-2 -4 -1 -14 5 -22 7 -12 9 -10 9 8 0 23 -5 28 -14 14z"/>
<path d="M2711 1064 c0 -11 3 -14 6 -6 3 7 2 16 -1 19 -3 4 -6 -2 -5 -13z"/>
<path d="M460 1061 c0 -5 5 -13 10 -16 6 -3 10 -2 10 4 0 5 -4 13 -10 16 -5 3
-10 2 -10 -4z"/>
<path d="M617 1064 c-8 -14 8 -37 22 -33 8 3 8 10 -2 23 -8 11 -17 15 -20 10z"/>
<path d="M2437 1053 c-4 -3 -7 -11 -7 -17 0 -6 5 -5 12 2 6 6 9 14 7 17 -3 3
-9 2 -12 -2z"/>
<path d="M2520 1045 c0 -23 -87 -113 -128 -132 -25 -12 -39 -14 -51 -6 -24 15
-135 -46 -190 -105 -24 -26 -41 -38 -37 -27 6 18 5 18 -8 5 -18 -17 -7 -77 13
-72 6 1 11 -2 11 -8 0 -5 5 -10 10 -10 13 0 13 37 0 45 -6 4 -2 15 9 27 11 11
24 17 30 13 6 -3 26 1 44 11 17 9 44 17 60 19 29 2 31 -2 27 -62 -1 -25 3 -33
16 -33 14 0 16 6 11 38 -8 46 1 82 18 76 7 -3 15 5 19 20 6 25 26 37 26 16 0
-24 29 -8 32 18 5 46 32 34 38 -18 6 -51 24 -56 26 -7 1 17 2 49 3 70 1 34 3
37 30 37 16 0 31 5 33 12 3 8 11 9 24 3 10 -4 23 -9 29 -9 5 -1 10 -12 10 -25
0 -13 6 -26 13 -28 7 -3 12 5 12 21 0 14 5 26 10 26 6 0 10 -3 10 -7 0 -5 20
-9 45 -10 25 -1 54 -8 65 -16 30 -21 84 -8 88 21 4 25 -13 30 -22 7 -4 -13
-12 -12 -51 5 -25 11 -74 27 -108 36 -34 8 -80 27 -103 40 -47 28 -64 30 -64
9z"/>
<path d="M2852 1040 c0 -14 2 -19 5 -12 2 6 2 18 0 25 -3 6 -5 1 -5 -13z"/>
<path d="M3290 1045 c0 -8 5 -15 10 -15 6 0 10 7 10 15 0 8 -4 15 -10 15 -5 0
-10 -7 -10 -15z"/>
<path d="M3612 1040 c0 -14 2 -19 5 -12 2 6 2 18 0 25 -3 6 -5 1 -5 -13z"/>
<path d="M2375 1000 c-9 -28 -15 -54 -12 -56 3 -3 12 18 21 47 20 69 13 76 -9
9z"/>
<path d="M2898 1045 c-7 -11 -1 -75 7 -83 12 -13 16 10 8 50 -5 23 -11 39 -15
33z"/>
<path d="M3132 1005 c-1 -33 3 -45 13 -45 16 0 18 12 9 59 -9 45 -21 38 -22
-14z"/>
<path d="M1670 1007 c0 -32 -4 -39 -37 -56 -21 -10 -65 -26 -98 -35 -33 -9
-77 -23 -97 -31 -22 -9 -38 -11 -38 -5 0 6 -5 10 -11 10 -6 0 -9 -8 -7 -17 2
-12 11 -17 26 -15 43 6 54 -15 50 -92 -2 -53 0 -70 11 -74 11 -4 13 4 8 40 -7
52 2 120 14 112 5 -3 9 2 9 10 0 11 9 16 28 16 15 0 33 5 39 11 19 19 33 0 33
-47 0 -34 4 -44 16 -44 13 0 15 8 10 48 -7 50 3 77 25 70 7 -2 20 3 30 13 26
26 66 14 73 -23 5 -24 10 -29 26 -25 11 3 20 1 20 -4 0 -5 8 -9 17 -9 9 0 24
-7 33 -15 9 -8 38 -15 66 -16 27 -1 59 -6 71 -10 14 -5 23 -4 26 4 3 7 15 0
31 -18 14 -16 25 -25 26 -18 0 6 -4 14 -9 18 -5 3 -12 18 -16 34 -3 16 -14 36
-24 45 -15 14 -20 14 -37 1 -27 -21 -64 -19 -64 3 0 13 -2 14 -9 3 -6 -10 -13
-10 -29 -2 -11 6 -32 10 -45 9 -14 -1 -37 4 -51 12 -32 17 -36 45 -5 37 18 -5
17 -1 -11 28 -26 27 -37 32 -50 25 -13 -7 -22 -5 -31 7 -8 9 -12 18 -11 20 2
3 1 7 -2 11 -3 3 -6 -11 -6 -31z"/>
<path d="M765 989 c10 -47 37 -106 42 -92 2 6 -3 28 -11 48 -9 21 -16 46 -16
56 0 11 -5 19 -11 19 -7 0 -8 -11 -4 -31z"/>
<path d="M3290 996 c0 -17 5 -26 16 -26 10 0 14 7 12 22 -5 32 -28 35 -28 4z"/>
<path d="M441 980 c0 -33 1 -34 11 -12 8 17 8 26 0 34 -9 9 -12 4 -11 -22z"/>
<path d="M1048 1005 c-8 -9 2 -77 13 -89 5 -6 9 0 8 15 -2 40 -14 81 -21 74z"/>
<path d="M1530 1000 c0 -5 5 -10 10 -10 6 0 10 5 10 10 0 6 -4 10 -10 10 -5 0
-10 -4 -10 -10z"/>
<path d="M1280 985 c0 -8 4 -15 8 -15 5 0 7 -13 4 -30 -3 -24 -1 -30 13 -30
14 0 16 6 11 31 -3 17 -6 38 -6 45 0 8 -7 14 -15 14 -8 0 -15 -7 -15 -15z"/>
<path d="M1360 990 c0 -5 7 -10 15 -10 8 0 15 5 15 10 0 6 -7 10 -15 10 -8 0
-15 -4 -15 -10z"/>
<path d="M3171 984 c0 -11 3 -14 6 -6 3 7 2 16 -1 19 -3 4 -6 -2 -5 -13z"/>
<path d="M336 973 c-9 -24 -20 -149 -13 -143 8 8 30 150 24 156 -2 3 -8 -3
-11 -13z"/>
<path d="M3352 970 c0 -14 2 -19 5 -12 2 6 2 18 0 25 -3 6 -5 1 -5 -13z"/>
<path d="M660 970 c0 -6 6 -13 14 -16 8 -3 12 -12 9 -20 -3 -8 0 -14 7 -14 7
0 10 -7 7 -14 -4 -10 -1 -13 8 -10 12 5 11 13 -5 45 -19 37 -40 52 -40 29z"/>
<path d="M881 954 c0 -11 3 -14 6 -6 3 7 2 16 -1 19 -3 4 -6 -2 -5 -13z"/>
<path d="M1530 950 c0 -11 7 -20 15 -20 8 0 15 9 15 20 0 11 -7 20 -15 20 -8
0 -15 -9 -15 -20z"/>
<path d="M941 944 c0 -11 3 -14 6 -6 3 7 2 16 -1 19 -3 4 -6 -2 -5 -13z"/>
<path d="M1364 944 c3 -9 6 -18 6 -20 0 -2 5 -4 10 -4 6 0 10 9 10 20 0 12 -7
20 -16 20 -11 0 -14 -5 -10 -16z"/>
<path d="M3290 945 c0 -8 7 -15 15 -15 8 0 15 7 15 15 0 8 -7 15 -15 15 -8 0
-15 -7 -15 -15z"/>
<path d="M3471 945 c0 -11 4 -27 9 -35 9 -13 10 -13 9 0 0 8 -4 24 -9 35 l-9
20 0 -20z"/>
<path d="M2601 934 c0 -11 3 -14 6 -6 3 7 2 16 -1 19 -3 4 -6 -2 -5 -13z"/>
<path d="M2910 936 c0 -9 5 -16 10 -16 6 0 10 4 10 9 0 6 -4 13 -10 16 -5 3
-10 -1 -10 -9z"/>
<path d="M3136 935 c4 -8 10 -15 15 -15 5 0 9 7 9 15 0 8 -7 15 -15 15 -9 0
-12 -6 -9 -15z"/>
<path d="M3540 929 c0 -11 4 -18 10 -14 5 3 7 12 3 20 -7 21 -13 19 -13 -6z"/>
<path d="M2535 930 c3 -5 10 -10 16 -10 5 0 9 5 9 10 0 6 -7 10 -16 10 -8 0
-12 -4 -9 -10z"/>
<path d="M570 916 c0 -9 5 -16 10 -16 6 0 10 4 10 9 0 6 -4 13 -10 16 -5 3
-10 -1 -10 -9z"/>
<path d="M428 893 c-2 -47 -5 -77 -9 -92 -2 -7 2 -16 10 -19 10 -3 13 1 8 17
-3 11 -1 23 3 26 11 7 10 84 -1 91 -5 3 -10 -7 -11 -23z"/>
<path d="M655 910 c3 -5 8 -10 11 -10 2 0 4 5 4 10 0 6 -5 10 -11 10 -5 0 -7
-4 -4 -10z"/>
<path d="M1731 904 c0 -11 3 -14 6 -6 3 7 2 16 -1 19 -3 4 -6 -2 -5 -13z"/>
<path d="M1941 911 c-8 -5 -9 -11 -3 -15 5 -3 15 1 22 9 14 16 3 20 -19 6z"/>
<path d="M3690 880 c0 -18 4 -29 10 -25 6 3 10 15 10 25 0 10 -4 22 -10 25 -6
4 -10 -7 -10 -25z"/>
<path d="M1061 884 c0 -11 3 -14 6 -6 3 7 2 16 -1 19 -3 4 -6 -2 -5 -13z"/>
<path d="M1300 885 c0 -8 7 -15 15 -15 9 0 12 6 9 15 -4 8 -10 15 -15 15 -5 0
-9 -7 -9 -15z"/>
<path d="M2786 882 c-8 -13 5 -52 15 -46 12 7 12 54 0 54 -6 0 -12 -4 -15 -8z"/>
<path d="M706 868 c3 -5 10 -6 15 -3 13 9 11 12 -6 12 -8 0 -12 -4 -9 -9z"/>
<path d="M2630 850 c0 -16 5 -30 10 -30 6 0 10 14 10 30 0 17 -4 30 -10 30 -5
0 -10 -13 -10 -30z"/>
<path d="M2921 864 c0 -11 3 -14 6 -6 3 7 2 16 -1 19 -3 4 -6 -2 -5 -13z"/>
<path d="M3300 860 c0 -11 5 -20 10 -20 6 0 10 9 10 20 0 11 -4 20 -10 20 -5
0 -10 -9 -10 -20z"/>
<path d="M3140 856 c0 -8 5 -18 10 -21 6 -3 10 3 10 14 0 12 -4 21 -10 21 -5
0 -10 -6 -10 -14z"/>
<path d="M3464 819 c8 -58 26 -91 26 -47 0 15 -5 30 -11 34 -6 3 -9 17 -6 30
2 14 0 27 -6 31 -7 4 -8 -12 -3 -48z"/>
<path d="M3560 856 c0 -8 5 -18 10 -21 6 -3 10 3 10 14 0 12 -4 21 -10 21 -5
0 -10 -6 -10 -14z"/>
<path d="M562 789 c-2 -53 1 -70 10 -66 7 2 12 12 12 21 -1 9 2 16 7 16 5 0 9
7 9 15 0 8 -4 15 -10 15 -5 0 -10 13 -10 29 0 17 -4 32 -8 35 -5 3 -9 -27 -10
-65z"/>
<path d="M1767 853 c-14 -13 -7 -63 8 -63 9 0 15 9 15 23 0 26 -14 50 -23 40z"/>
<path d="M3650 836 c0 -14 5 -26 10 -26 6 0 10 9 10 19 0 11 -4 23 -10 26 -6
4 -10 -5 -10 -19z"/>
<path d="M816 828 c8 -28 12 -33 20 -25 9 8 -6 47 -17 47 -6 0 -7 -10 -3 -22z"/>
<path d="M1065 820 c-3 -5 -1 -18 4 -27 9 -16 10 -14 11 10 0 28 -5 34 -15 17z"/>
<path d="M537 800 c-3 -11 -1 -20 4 -20 5 0 9 9 9 20 0 11 -2 20 -4 20 -2 0
-6 -9 -9 -20z"/>
<path d="M730 813 c0 -5 9 -19 20 -33 21 -26 27 -12 10 21 -10 19 -30 26 -30
12z"/>
<path d="M1317 814 c-8 -8 3 -34 14 -34 11 0 12 27 0 34 -4 3 -11 3 -14 0z"/>
<path d="M3700 808 c0 -9 5 -20 10 -23 13 -8 13 5 0 25 -8 13 -10 13 -10 -2z"/>
<path d="M1172 785 c0 -16 2 -22 5 -12 2 9 2 23 0 30 -3 6 -5 -1 -5 -18z"/>
<path d="M2010 799 c0 -5 -5 -7 -12 -3 -7 4 -8 3 -4 -5 4 -6 11 -9 16 -6 4 3
10 -1 13 -8 3 -6 20 -21 38 -31 l33 -19 -34 41 c-33 41 -50 52 -50 31z"/>
<path d="M313 765 c0 -22 2 -30 4 -17 2 12 2 30 0 40 -3 9 -5 -1 -4 -23z"/>
<path d="M3385 787 c-4 -10 -5 -21 -1 -24 10 -10 18 4 13 24 -4 17 -4 17 -12
0z"/>
<path d="M2783 774 c-8 -21 13 -42 28 -27 13 13 5 43 -11 43 -6 0 -13 -7 -17
-16z"/>
<path d="M2930 771 c0 -11 5 -23 10 -26 6 -4 10 5 10 19 0 14 -4 26 -10 26 -5
0 -10 -9 -10 -19z"/>
<path d="M3144 775 c-3 -8 -3 -19 1 -25 11 -18 25 -11 25 15 0 27 -17 34 -26
10z"/>
<path d="M3300 764 c0 -31 23 -28 28 4 2 15 -2 22 -12 22 -11 0 -16 -9 -16
-26z"/>
<path d="M3587 784 c-4 -4 -7 -14 -7 -23 0 -11 3 -12 11 -4 6 6 10 16 7 23 -2
6 -7 8 -11 4z"/>
<path d="M2470 751 c0 -21 5 -31 16 -31 11 0 14 8 12 27 -4 39 -28 42 -28 4z"/>
<path d="M2630 755 c0 -16 6 -25 15 -25 9 0 15 9 15 25 0 16 -6 25 -15 25 -9
0 -15 -9 -15 -25z"/>
<path d="M2672 760 c0 -14 2 -19 5 -12 2 6 2 18 0 25 -3 6 -5 1 -5 -13z"/>
<path d="M3191 764 c0 -11 3 -14 6 -6 3 7 2 16 -1 19 -3 4 -6 -2 -5 -13z"/>
<path d="M1611 756 c-14 -17 -12 -47 5 -53 14 -5 23 26 14 51 -5 16 -7 16 -19
2z"/>
<path d="M1927 750 c-7 -28 3 -60 19 -60 18 0 18 20 0 54 -13 25 -14 25 -19 6z"/>
<path d="M2600 755 c0 -8 5 -15 10 -15 6 0 10 7 10 15 0 8 -4 15 -10 15 -5 0
-10 -7 -10 -15z"/>
<path d="M839 738 c4 -12 14 -24 21 -26 9 -3 11 1 7 12 -4 10 -7 22 -7 27 0 5
-7 9 -15 9 -11 0 -12 -6 -6 -22z"/>
<path d="M2350 740 c0 -11 5 -20 10 -20 6 0 10 9 10 20 0 11 -4 20 -10 20 -5
0 -10 -9 -10 -20z"/>
<path d="M700 705 c9 -60 20 -69 20 -17 0 23 0 45 1 50 0 4 -6 8 -14 10 -11 2
-13 -6 -7 -43z"/>
<path d="M770 724 c0 -19 6 -34 15 -38 19 -7 19 11 0 44 l-14 25 -1 -31z"/>
<path d="M947 744 c-8 -8 3 -137 13 -147 4 -5 6 26 4 68 -3 78 -6 90 -17 79z"/>
<path d="M1492 725 c0 -16 2 -22 5 -12 2 9 2 23 0 30 -3 6 -5 -1 -5 -18z"/>
<path d="M1760 726 c0 -20 5 -26 21 -26 15 0 20 5 17 22 -5 34 -38 37 -38 4z"/>
<path d="M2280 730 c0 -11 5 -20 10 -20 6 0 10 9 10 20 0 11 -4 20 -10 20 -5
0 -10 -9 -10 -20z"/>
<path d="M1742 720 c0 -14 2 -19 5 -12 2 6 2 18 0 25 -3 6 -5 1 -5 -13z"/>
<path d="M1812 720 c0 -14 2 -19 5 -12 2 6 2 18 0 25 -3 6 -5 1 -5 -13z"/>
<path d="M2216 725 c-3 -9 0 -15 9 -15 8 0 15 7 15 15 0 8 -4 15 -9 15 -5 0
-11 -7 -15 -15z"/>
<path d="M406 663 c7 -67 10 -80 18 -72 8 8 -7 139 -16 139 -5 0 -6 -30 -2
-67z"/>
<path d="M1070 705 c0 -14 5 -25 10 -25 6 0 10 11 10 25 0 14 -4 25 -10 25 -5
0 -10 -11 -10 -25z"/>
<path d="M1180 702 c0 -18 5 -32 10 -32 6 0 8 11 4 28 -10 39 -14 40 -14 4z"/>
<path d="M1328 724 c-10 -10 4 -44 18 -44 15 0 17 10 8 34 -6 16 -16 20 -26
10z"/>
<path d="M3389 710 c-7 -20 5 -68 14 -54 3 6 3 24 -2 39 -5 19 -9 24 -12 15z"/>
<path d="M301 693 c0 -13 -6 -23 -12 -23 -8 0 -8 -4 -1 -12 5 -7 12 -22 15
-33 4 -18 5 -17 6 3 0 13 6 20 11 17 6 -3 10 3 10 14 0 12 -4 21 -9 21 -5 0
-12 8 -14 18 -4 13 -5 11 -6 -5z"/>
<path d="M1990 700 c0 -5 5 -10 11 -10 5 0 7 5 4 10 -3 6 -8 10 -11 10 -2 0
-4 -4 -4 -10z"/>
<path d="M3473 695 c-17 -19 -16 -25 2 -25 8 0 15 2 15 4 0 2 3 11 6 20 8 20
-7 20 -23 1z"/>
<path d="M2793 684 c-3 -8 -1 -20 6 -27 8 -8 11 -4 11 16 0 30 -7 35 -17 11z"/>
<path d="M3312 621 c-1 -76 0 -82 12 -59 11 21 11 37 2 84 l-12 59 -2 -84z"/>
<path d="M2630 683 c0 -5 4 -15 10 -23 11 -18 25 -7 17 15 -6 15 -27 21 -27 8z"/>
<path d="M2951 674 c0 -11 3 -14 6 -6 3 7 2 16 -1 19 -3 4 -6 -2 -5 -13z"/>
<path d="M3150 676 c0 -8 5 -18 10 -21 6 -3 10 3 10 14 0 12 -4 21 -10 21 -5
0 -10 -6 -10 -14z"/>
<path d="M3581 674 c0 -11 3 -14 6 -6 3 7 2 16 -1 19 -3 4 -6 -2 -5 -13z"/>
<path d="M1935 652 c-7 -34 0 -56 16 -47 11 8 12 46 0 64 -7 10 -11 5 -16 -17z"/>
<path d="M2480 655 c0 -14 5 -25 10 -25 6 0 10 11 10 25 0 14 -4 25 -10 25 -5
0 -10 -11 -10 -25z"/>
<path d="M550 650 c0 -11 5 -20 10 -20 6 0 10 9 10 20 0 11 -4 20 -10 20 -5 0
-10 -9 -10 -20z"/>
<path d="M2320 645 c0 -14 5 -25 10 -25 6 0 10 11 10 25 0 14 -4 25 -10 25 -5
0 -10 -11 -10 -25z"/>
<path d="M790 639 c0 -33 11 -69 20 -69 8 0 -4 77 -14 87 -3 4 -6 -5 -6 -18z"/>
<path d="M1468 653 c-4 -7 -3 -115 1 -282 0 -35 4 -61 8 -57 7 7 6 336 -1 343
-2 3 -6 1 -8 -4z"/>
<path d="M1610 641 c0 -11 5 -23 10 -26 6 -4 10 5 10 19 0 14 -4 26 -10 26 -5
0 -10 -9 -10 -19z"/>
<path d="M1770 630 c0 -30 13 -40 25 -20 8 13 -4 50 -16 50 -5 0 -9 -13 -9
-30z"/>
<path d="M1077 633 c-11 -10 -8 -43 3 -43 6 0 10 11 10 25 0 26 -2 29 -13 18z"/>
<path d="M3470 616 c0 -22 3 -27 11 -19 8 8 8 16 0 30 -9 16 -10 14 -11 -11z"/>
<path d="M3092 597 c-6 -18 -14 -50 -17 -72 l-6 -40 22 39 c24 45 34 92 21
100 -4 3 -13 -9 -20 -27z"/>
<path d="M3581 588 c0 -27 3 -48 8 -48 5 0 8 -6 7 -12 0 -7 4 -15 9 -17 11 -4
7 59 -5 74 -4 6 -10 19 -13 30 -2 11 -5 -1 -6 -27z"/>
<path d="M700 555 c0 -51 3 -65 15 -65 16 0 21 35 6 44 -5 3 -5 21 -1 40 4 19
5 37 2 40 -16 16 -22 0 -22 -59z"/>
<path d="M1201 594 c0 -11 3 -14 6 -6 3 7 2 16 -1 19 -3 4 -6 -2 -5 -13z"/>
<path d="M2796 602 c-9 -15 0 -116 11 -119 7 -3 11 17 11 57 0 56 -9 82 -22
62z"/>
<path d="M2954 554 c6 -66 26 -99 26 -42 0 49 -11 98 -21 98 -5 0 -7 -25 -5
-56z"/>
<path d="M3162 590 c0 -14 2 -19 5 -12 2 6 2 18 0 25 -3 6 -5 1 -5 -13z"/>
<path d="M290 575 c0 -14 5 -25 10 -25 6 0 10 11 10 25 0 14 -4 25 -10 25 -5
0 -10 -11 -10 -25z"/>
<path d="M2639 598 c-1 -2 -3 -31 -5 -65 -2 -47 1 -63 10 -63 10 0 14 19 15
65 1 38 -3 65 -9 65 -5 0 -11 -1 -11 -2z"/>
<path d="M511 574 c0 -11 3 -14 6 -6 3 7 2 16 -1 19 -3 4 -6 -2 -5 -13z"/>
<path d="M535 571 c-11 -35 16 -58 29 -24 4 9 0 23 -8 31 -12 12 -15 11 -21
-7z"/>
<path d="M2480 558 c0 -50 12 -108 21 -108 14 0 5 133 -9 138 -8 2 -12 -8 -12
-30z"/>
<path d="M1774 567 c-3 -9 -3 -20 0 -26 3 -5 3 -17 0 -26 -5 -13 -8 -14 -15
-3 -6 9 -9 7 -9 -9 0 -13 5 -22 12 -20 7 1 14 -9 16 -23 4 -29 21 -51 23 -29
1 7 0 41 -1 74 -2 62 -14 92 -26 62z"/>
<path d="M2329 575 c-5 -4 -3 -57 4 -108 1 -9 7 -18 12 -20 9 -2 11 18 7 101
-2 29 -11 40 -23 27z"/>
<path d="M3355 568 c-4 -9 -2 -25 3 -35 10 -17 11 -17 17 -1 4 9 2 25 -3 35
-10 17 -11 17 -17 1z"/>
<path d="M582 550 c0 -14 2 -19 5 -12 2 6 2 18 0 25 -3 6 -5 1 -5 -13z"/>
<path d="M810 551 c0 -12 27 -74 35 -83 4 -4 16 -3 26 3 18 9 18 11 -6 35 -14
14 -25 29 -25 33 0 5 -7 11 -15 15 -8 3 -15 2 -15 -3z"/>
<path d="M961 533 c0 -17 -6 -33 -13 -35 -7 -3 -9 -11 -3 -24 11 -27 6 -82
-14 -169 -12 -48 -15 -78 -9 -82 15 -9 29 19 23 45 -3 12 -1 39 4 60 21 84 29
159 21 197 -7 38 -8 38 -9 8z"/>
<path d="M1618 538 c-7 -39 3 -109 16 -105 6 2 10 17 10 33 -1 16 -2 44 -3 62
-1 37 -17 43 -23 10z"/>
<path d="M1938 554 c-8 -7 1 -195 10 -214 7 -17 19 149 13 193 -3 26 -11 33
-23 21z"/>
<path d="M2099 555 c-1 -9 2 -64 5 -108 0 -9 6 -17 11 -17 13 1 8 111 -5 124
-6 6 -10 6 -11 1z"/>
<path d="M3487 553 c-4 -3 -7 -15 -7 -25 0 -11 -6 -26 -14 -34 -16 -15 -10
-57 8 -51 6 2 12 16 14 30 2 15 8 27 13 27 11 0 12 30 1 48 -5 7 -11 9 -15 5z"/>
<path d="M410 514 c0 -21 4 -33 10 -29 6 3 10 19 10 36 0 16 -4 29 -10 29 -5
0 -10 -16 -10 -36z"/>
<path d="M2681 534 c0 -11 3 -14 6 -6 3 7 2 16 -1 19 -3 4 -6 -2 -5 -13z"/>
<path d="M288 528 c-8 -19 0 -185 9 -213 4 -11 8 -38 9 -60 2 -22 9 -79 16
-127 8 -48 10 -89 5 -91 -4 -1 -5 -10 -2 -20 8 -18 55 -24 55 -7 0 6 -4 10 -9
10 -6 0 -10 8 -10 18 0 9 -5 46 -10 82 -9 59 -5 94 6 63 3 -7 9 -13 14 -13 12
0 -2 33 -19 46 -8 6 -22 41 -32 78 -17 68 -16 115 3 127 6 4 6 15 2 25 -5 11
-10 24 -10 29 -1 6 -5 17 -8 25 -3 8 -7 22 -9 29 -4 13 -5 12 -10 -1z"/>
<path d="M1080 526 c0 -7 -3 -28 -6 -45 -5 -24 -3 -31 9 -31 13 0 16 10 15 45
0 25 -4 45 -9 45 -5 0 -9 -6 -9 -14z"/>
<path d="M1366 531 c-4 -7 -5 -15 -2 -18 9 -9 19 4 14 18 -4 11 -6 11 -12 0z"/>
<path d="M1221 477 c11 -71 19 -100 25 -94 7 7 -16 136 -25 142 -5 2 -4 -19 0
-48z"/>
<path d="M2371 514 c0 -11 3 -14 6 -6 3 7 2 16 -1 19 -3 4 -6 -2 -5 -13z"/>
<path d="M1821 504 c0 -11 3 -14 6 -6 3 7 2 16 -1 19 -3 4 -6 -2 -5 -13z"/>
<path d="M2301 504 c0 -11 3 -14 6 -6 3 7 2 16 -1 19 -3 4 -6 -2 -5 -13z"/>
<path d="M1501 494 c0 -11 3 -14 6 -6 3 7 2 16 -1 19 -3 4 -6 -2 -5 -13z"/>
<path d="M2141 484 c0 -11 3 -14 6 -6 3 7 2 16 -1 19 -3 4 -6 -2 -5 -13z"/>
<path d="M3367 490 c-30 -90 -44 -249 -21 -257 7 -2 10 27 10 89 -1 70 3 99
16 118 10 16 13 32 8 45 -6 16 -9 17 -13 5z"/>
<path d="M1201 474 c0 -11 3 -14 6 -6 3 7 2 16 -1 19 -3 4 -6 -2 -5 -13z"/>
<path d="M1360 470 c0 -11 7 -20 15 -20 8 0 15 9 15 20 0 11 -7 20 -15 20 -8
0 -15 -9 -15 -20z"/>
<path d="M550 465 c0 -8 4 -15 10 -15 5 0 7 7 4 15 -4 8 -8 15 -10 15 -2 0 -4
-7 -4 -15z"/>
<path d="M408 438 c0 -13 0 -30 1 -38 0 -8 4 -44 7 -80 8 -98 24 -98 18 1 -3
46 -5 96 -4 112 0 32 -19 37 -22 5z"/>
<path d="M860 445 c0 -8 5 -15 10 -15 6 0 10 7 10 15 0 8 -4 15 -10 15 -5 0
-10 -7 -10 -15z"/>
<path d="M3056 445 c-3 -9 -5 -35 -5 -58 1 -40 2 -40 9 13 9 57 7 73 -4 45z"/>
<path d="M694 435 c-8 -20 3 -48 16 -40 13 8 13 55 0 55 -6 0 -13 -7 -16 -15z"/>
<path d="M3610 439 c0 -8 3 -24 6 -37 7 -23 7 -23 25 -3 20 22 25 41 10 41 -5
0 -16 3 -25 6 -10 4 -16 1 -16 -7z"/>
<path d="M1076 425 c-3 -8 -1 -15 4 -15 6 0 10 7 10 15 0 8 -2 15 -4 15 -2 0
-6 -7 -10 -15z"/>
<path d="M1370 425 c0 -8 7 -15 15 -15 9 0 12 6 9 15 -4 8 -10 15 -15 15 -5 0
-9 -7 -9 -15z"/>
<path d="M3192 428 c-7 -7 -12 -20 -12 -30 0 -11 -7 -18 -19 -18 -28 0 -36
-19 -15 -35 14 -10 16 -16 7 -27 -7 -7 -19 -36 -28 -63 -9 -28 -23 -55 -31
-61 -8 -7 -15 -29 -16 -50 -1 -22 -7 -53 -15 -71 -17 -42 -17 -73 2 -73 8 0
12 6 9 15 -10 25 33 145 52 145 7 0 14 7 18 15 3 8 1 15 -5 15 -11 0 -4 38 19
98 13 33 21 42 35 38 21 -5 36 22 18 34 -8 5 -10 19 -6 44 8 39 6 43 -13 24z"/>
<path d="M2640 405 c0 -14 5 -25 10 -25 6 0 10 11 10 25 0 14 -4 25 -10 25 -5
0 -10 -11 -10 -25z"/>
<path d="M2800 410 c0 -11 5 -20 10 -20 6 0 10 9 10 20 0 11 -4 20 -10 20 -5
0 -10 -9 -10 -20z"/>
<path d="M2965 421 c-3 -5 -1 -12 5 -16 5 -3 10 1 10 9 0 18 -6 21 -15 7z"/>
<path d="M3311 414 c0 -11 3 -14 6 -6 3 7 2 16 -1 19 -3 4 -6 -2 -5 -13z"/>
<path d="M550 413 c1 -5 5 -27 9 -51 5 -23 5 -45 0 -48 -4 -2 -1 -13 8 -24 9
-10 21 -17 25 -13 5 3 2 13 -6 22 -12 13 -13 20 -4 29 13 13 -6 92 -22 92 -6
0 -10 -3 -10 -7z"/>
<path d="M2497 413 c-3 -5 -1 -17 4 -28 7 -17 8 -17 8 8 1 27 -4 34 -12 20z"/>
<path d="M3470 385 c0 -14 5 -25 10 -25 6 0 10 11 10 25 0 14 -4 25 -10 25 -5
0 -10 -11 -10 -25z"/>
<path d="M860 375 c0 -14 5 -25 10 -25 6 0 10 11 10 25 0 14 -4 25 -10 25 -5
0 -10 -11 -10 -25z"/>
<path d="M1789 399 c0 -2 -2 -34 -4 -71 -2 -51 0 -68 10 -68 10 0 13 17 12 64
-1 35 -5 68 -9 72 -5 4 -8 5 -9 3z"/>
<path d="M2340 380 c0 -11 5 -20 10 -20 6 0 10 9 10 20 0 11 -4 20 -10 20 -5
0 -10 -9 -10 -20z"/>
<path d="M3900 375 c-6 -14 -10 -37 -10 -50 0 -13 -5 -36 -12 -52 -6 -15 -14
-50 -19 -78 -4 -27 -12 -68 -18 -90 -6 -22 -8 -55 -5 -73 l6 -32 65 0 65 0 -5
38 c-3 20 -8 84 -10 142 -5 109 -22 206 -38 216 -5 3 -14 -7 -19 -21z"/>
<path d="M1642 360 c0 -14 2 -19 5 -12 2 6 2 18 0 25 -3 6 -5 1 -5 -13z"/>
<path d="M2110 355 c0 -14 5 -25 10 -25 6 0 10 11 10 25 0 14 -4 25 -10 25 -5
0 -10 -11 -10 -25z"/>
<path d="M1075 357 c-4 -10 -3 -23 4 -30 16 -16 23 -3 12 24 -8 22 -10 22 -16
6z"/>
<path d="M1237 358 c-5 -18 3 -48 14 -48 12 0 12 47 0 54 -5 4 -11 0 -14 -6z"/>
<path d="M1387 363 c-3 -5 -8 -46 -12 -93 -4 -47 -13 -119 -21 -160 -16 -85
-17 -110 -6 -110 4 0 16 64 25 142 10 79 21 162 24 186 5 39 1 53 -10 35z"/>
<path d="M687 333 c-5 -27 7 -53 24 -53 12 0 5 73 -8 77 -6 2 -13 -9 -16 -24z"/>
<path d="M3632 335 c0 -16 2 -22 5 -12 2 9 2 23 0 30 -3 6 -5 -1 -5 -18z"/>
<path d="M600 336 c0 -9 5 -16 10 -16 6 0 10 4 10 9 0 6 -4 13 -10 16 -5 3
-10 -1 -10 -9z"/>
<path d="M2960 324 c0 -31 23 -28 28 4 2 15 -2 22 -12 22 -11 0 -16 -9 -16
-26z"/>
<path d="M3250 335 c0 -8 5 -15 10 -15 6 0 10 7 10 15 0 8 -4 15 -10 15 -5 0
-10 -7 -10 -15z"/>
<path d="M2644 326 c-6 -17 2 -36 17 -36 12 0 12 37 -1 45 -6 3 -13 -1 -16 -9z"/>
<path d="M2800 320 c0 -11 7 -20 15 -20 8 0 15 9 15 20 0 11 -7 20 -15 20 -8
0 -15 -9 -15 -20z"/>
<path d="M2931 324 c0 -11 3 -14 6 -6 3 7 2 16 -1 19 -3 4 -6 -2 -5 -13z"/>
<path d="M3475 320 c-4 -11 -11 -18 -16 -15 -5 4 -9 0 -9 -7 0 -7 11 -14 25
-14 20 -2 25 3 25 21 0 31 -17 41 -25 15z"/>
<path d="M830 315 c0 -7 6 -16 13 -18 7 -3 4 -6 -6 -6 -12 -1 -17 -7 -15 -18
2 -10 10 -17 16 -15 7 1 12 -11 13 -30 1 -21 5 -12 10 26 5 33 6 62 4 65 -12
11 -35 8 -35 -4z"/>
<path d="M2507 323 c-11 -10 -8 -53 3 -53 6 0 10 14 10 30 0 31 -2 35 -13 23z"/>
<path d="M1822 290 c0 -14 2 -19 5 -12 2 6 2 18 0 25 -3 6 -5 1 -5 -13z"/>
<path d="M2340 285 c0 -16 6 -25 15 -25 9 0 15 9 15 25 0 16 -6 25 -15 25 -9
0 -15 -9 -15 -25z"/>
<path d="M1630 276 c0 -17 5 -26 16 -26 10 0 14 7 12 22 -5 32 -28 35 -28 4z"/>
<path d="M1762 280 c0 -14 2 -19 5 -12 2 6 2 18 0 25 -3 6 -5 1 -5 -13z"/>
<path d="M1936 278 c9 -31 12 -34 25 -21 15 15 4 43 -16 43 -12 0 -15 -6 -9
-22z"/>
<path d="M1466 268 c8 -29 11 -31 22 -24 15 9 2 46 -15 46 -10 0 -12 -6 -7
-22z"/>
<path d="M2110 265 c0 -17 5 -25 13 -22 6 2 12 12 12 22 0 10 -6 20 -12 23 -8
2 -13 -6 -13 -23z"/>
<path d="M890 259 c0 -11 5 -17 10 -14 6 3 10 13 10 21 0 8 -4 14 -10 14 -5 0
-10 -9 -10 -21z"/>
<path d="M271 254 c0 -11 3 -14 6 -6 3 7 2 16 -1 19 -3 4 -6 -2 -5 -13z"/>
<path d="M1079 268 c-6 -15 -4 -129 2 -139 9 -15 14 6 24 89 5 43 3 52 -10 52
-8 0 -15 -1 -16 -2z"/>
<path d="M1200 251 c0 -25 6 -27 13 -6 4 8 2 17 -3 20 -6 4 -10 -3 -10 -14z"/>
<path d="M1232 200 c0 -38 4 -70 9 -70 5 0 9 15 9 33 0 17 3 49 6 70 5 30 4
37 -9 37 -13 0 -16 -13 -15 -70z"/>
<path d="M2825 261 c-30 -7 -34 -18 -20 -53 5 -13 2 -18 -11 -18 -18 -1 -18
-1 -1 -14 12 -9 16 -22 12 -37 -3 -13 -1 -30 4 -38 10 -16 31 -6 31 15 0 8 5
12 10 9 6 -4 8 -10 5 -15 -6 -10 14 -25 22 -16 3 3 8 22 10 43 2 20 1 34 -3
30 -9 -9 -34 12 -34 29 0 8 5 14 10 14 6 0 10 -8 10 -17 0 -14 4 -12 14 7 10
20 11 29 1 44 -14 24 -21 26 -60 17z"/>
<path d="M2960 250 c0 -11 5 -20 10 -20 6 0 10 9 10 20 0 11 -4 20 -10 20 -5
0 -10 -9 -10 -20z"/>
<path d="M3270 250 c-15 -28 -4 -39 17 -17 13 12 14 20 6 28 -8 8 -14 5 -23
-11z"/>
<path d="M3639 265 c-3 -2 -3 -20 -1 -40 3 -23 9 -35 19 -35 12 0 14 7 9 31
-3 17 -6 35 -6 40 0 10 -14 12 -21 4z"/>
<path d="M1272 240 c0 -14 2 -19 5 -12 2 6 2 18 0 25 -3 6 -5 1 -5 -13z"/>
<path d="M570 230 c0 -13 5 -20 13 -17 6 2 12 10 12 17 0 7 -6 15 -12 18 -8 2
-13 -5 -13 -18z"/>
<path d="M825 230 c-3 -5 -1 -10 4 -10 6 0 11 5 11 10 0 6 -2 10 -4 10 -3 0
-8 -4 -11 -10z"/>
<path d="M3492 220 c0 -14 2 -19 5 -12 2 6 2 18 0 25 -3 6 -5 1 -5 -13z"/>
<path d="M2512 210 c0 -14 2 -19 5 -12 2 6 2 18 0 25 -3 6 -5 1 -5 -13z"/>
<path d="M732 162 c0 -33 4 -65 8 -73 9 -14 9 -14 25 36 2 8 0 17 -4 19 -5 3
-6 16 -4 29 3 13 -2 29 -10 36 -13 10 -15 4 -15 -47z"/>
<path d="M1790 208 c0 -9 5 -20 10 -23 13 -8 13 5 0 25 -8 13 -10 13 -10 -2z"/>
<path d="M1940 201 c0 -20 13 -35 23 -25 7 8 -4 44 -14 44 -5 0 -9 -9 -9 -19z"/>
<path d="M410 180 c0 -21 4 -30 13 -27 6 2 12 14 12 27 0 13 -6 25 -12 28 -9
2 -13 -7 -13 -28z"/>
<path d="M2350 196 c0 -8 5 -18 10 -21 6 -3 10 3 10 14 0 12 -4 21 -10 21 -5
0 -10 -6 -10 -14z"/>
<path d="M1636 193 c-11 -11 -6 -23 9 -23 8 0 15 4 15 9 0 13 -16 22 -24 14z"/>
<path d="M3340 188 c0 -7 4 -19 9 -26 7 -11 10 -10 15 3 3 9 4 21 0 26 -8 13
-24 11 -24 -3z"/>
<path d="M855 168 c-4 -15 -3 -33 1 -40 5 -7 7 -21 6 -30 -2 -11 3 -18 12 -18
13 0 15 -8 10 -39 -6 -36 -5 -39 20 -39 31 1 28 -8 31 101 2 71 0 87 -13 87
-11 0 -13 -8 -9 -33 3 -18 2 -46 -1 -62 -5 -28 -7 -25 -27 35 -21 59 -23 63
-30 38z"/>
<path d="M3040 174 c0 -8 5 -12 10 -9 6 4 8 11 5 16 -9 14 -15 11 -15 -7z"/>
<path d="M2973 160 c3 -10 0 -21 -6 -23 -13 -4 -2 -37 13 -37 5 0 10 18 10 40
0 23 -5 40 -11 40 -6 0 -9 -9 -6 -20z"/>
<path d="M3180 171 c0 -6 5 -13 10 -16 6 -3 10 1 10 9 0 9 -4 16 -10 16 -5 0
-10 -4 -10 -9z"/>
<path d="M3650 171 c0 -6 5 -13 10 -16 6 -3 10 1 10 9 0 9 -4 16 -10 16 -5 0
-10 -4 -10 -9z"/>
<path d="M572 145 c2 -14 8 -26 13 -26 6 0 11 12 13 26 2 18 -1 25 -13 25 -12
0 -15 -7 -13 -25z"/>
<path d="M3208 102 c-42 -105 -42 -102 -25 -102 9 0 18 8 20 18 4 16 5 16 6 0
1 -22 31 -24 31 -3 0 8 5 15 10 15 6 0 10 7 10 15 0 8 -6 15 -14 15 -16 0 -27
55 -13 69 5 5 7 16 5 25 -1 8 -15 -15 -30 -52z"/>
<path d="M3542 153 c-6 -10 -7 -48 -4 -88 l7 -70 5 85 c3 47 5 87 4 88 -1 2
-7 -5 -12 -15z"/>
<path d="M612 140 c0 -14 2 -19 5 -12 2 6 2 18 0 25 -3 6 -5 1 -5 -13z"/>
<path d="M2660 146 c0 -9 5 -16 10 -16 6 0 10 4 10 9 0 6 -4 13 -10 16 -5 3
-10 -1 -10 -9z"/>
<path d="M3488 129 c-3 -16 -2 -47 2 -67 l7 -37 7 30 c4 17 9 35 11 42 2 7 0
15 -4 18 -5 3 -7 14 -4 25 3 11 1 20 -5 20 -5 0 -12 -14 -14 -31z"/>
<path d="M2358 134 c-5 -4 -8 -25 -8 -46 0 -27 4 -38 15 -38 16 0 17 15 6 63
-3 16 -9 25 -13 21z"/>
<path d="M2508 110 c-6 -39 2 -90 13 -90 5 0 9 27 9 60 0 62 -14 82 -22 30z"/>
<path d="M420 125 c-1 -5 -1 -14 0 -20 1 -5 5 -30 9 -54 3 -24 11 -46 18 -48
12 -4 10 3 -15 97 -6 19 -11 31 -12 25z"/>
<path d="M802 118 c5 -15 28 -23 28 -10 0 5 -7 13 -16 16 -10 4 -14 1 -12 -6z"/>
<path d="M1791 70 c0 -33 3 -60 8 -60 4 0 9 27 10 60 0 33 -3 60 -8 60 -4 0
-9 -27 -10 -60z"/>
<path d="M1946 115 c4 -8 10 -15 15 -15 5 0 9 7 9 15 0 8 -7 15 -15 15 -9 0
-12 -6 -9 -15z"/>
<path d="M3356 122 c-6 -11 1 -89 10 -103 14 -24 23 -4 19 43 -5 53 -17 78
-29 60z"/>
<path d="M1640 105 c0 -8 5 -15 10 -15 6 0 10 7 10 15 0 8 -4 15 -10 15 -5 0
-10 -7 -10 -15z"/>
<path d="M2662 75 c1 -59 18 -59 18 0 0 25 -4 45 -10 45 -5 0 -9 -20 -8 -45z"/>
<path d="M1071 55 c3 -58 14 -72 25 -29 4 16 2 29 -6 34 -10 6 -10 8 1 12 15
5 5 38 -11 38 -7 0 -10 -21 -9 -55z"/>
<path d="M3672 90 c0 -14 2 -19 5 -12 2 6 2 18 0 25 -3 6 -5 1 -5 -13z"/>
<path d="M1480 90 c0 -5 5 -10 10 -10 6 0 10 5 10 10 0 6 -4 10 -10 10 -5 0
-10 -4 -10 -10z"/>
<path d="M1831 74 c0 -11 3 -14 6 -6 3 7 2 16 -1 19 -3 4 -6 -2 -5 -13z"/>
<path d="M1942 50 c1 -55 25 -55 26 0 1 28 -4 40 -13 40 -9 0 -14 -12 -13 -40z"/>
<path d="M2321 74 c0 -11 3 -14 6 -6 3 7 2 16 -1 19 -3 4 -6 -2 -5 -13z"/>
<path d="M2391 74 c0 -11 3 -14 6 -6 3 7 2 16 -1 19 -3 4 -6 -2 -5 -13z"/>
<path d="M2970 75 c0 -8 5 -15 10 -15 6 0 10 7 10 15 0 8 -4 15 -10 15 -5 0
-10 -7 -10 -15z"/>
<path d="M570 60 c0 -11 5 -20 10 -20 6 0 10 9 10 20 0 11 -4 20 -10 20 -5 0
-10 -9 -10 -20z"/>
<path d="M1230 50 c0 -16 0 -33 -1 -37 -1 -12 15 -13 30 -4 12 8 12 13 3 24
-7 8 -10 22 -6 31 4 11 1 16 -10 16 -11 0 -16 -9 -16 -30z"/>
<path d="M1645 70 c-8 -13 4 -70 15 -70 9 0 7 67 -3 76 -3 3 -8 0 -12 -6z"/>
<path d="M1761 64 c0 -11 3 -14 6 -6 3 7 2 16 -1 19 -3 4 -6 -2 -5 -13z"/>
<path d="M2810 71 c0 -6 5 -13 10 -16 6 -3 10 1 10 9 0 9 -4 16 -10 16 -5 0
-10 -4 -10 -9z"/>
<path d="M1484 56 c-6 -17 2 -36 17 -36 12 0 12 37 -1 45 -6 3 -13 -1 -16 -9z"/>
<path d="M2122 35 c1 -21 6 -35 14 -35 8 0 11 10 9 28 -2 15 -4 30 -4 35 -1 4
-5 7 -11 7 -5 0 -9 -16 -8 -35z"/>
<path d="M2161 54 c0 -11 3 -14 6 -6 3 7 2 16 -1 19 -3 4 -6 -2 -5 -13z"/>
<path d="M743 44 c-7 -12 -8 -26 -3 -34 13 -21 22 -7 18 27 -3 27 -4 27 -15 7z"/>
<path d="M1007 53 c-11 -11 -8 -23 6 -23 8 0 14 7 14 15 0 16 -9 19 -20 8z"/>
<path d="M198 25 c-6 -30 -2 -32 12 -6 6 11 6 22 1 25 -5 3 -11 -5 -13 -19z"/>
<path d="M290 41 c0 -5 5 -13 10 -16 6 -3 10 -2 10 4 0 5 -4 13 -10 16 -5 3
-10 2 -10 -4z"/>
<path d="M950 35 c0 -8 5 -15 10 -15 6 0 10 7 10 15 0 8 -4 15 -10 15 -5 0
-10 -7 -10 -15z"/>
<path d="M1202 20 c0 -14 2 -19 5 -12 2 6 2 18 0 25 -3 6 -5 1 -5 -13z"/>
<path d="M2350 25 c0 -9 5 -15 11 -13 6 2 11 8 11 13 0 5 -5 11 -11 13 -6 2
-11 -4 -11 -13z"/>
<path d="M3677 23 c-12 -11 -8 -23 8 -23 8 0 15 7 15 15 0 16 -12 20 -23 8z"/>
<path d="M2975 10 c-3 -5 -1 -10 4 -10 6 0 11 5 11 10 0 6 -2 10 -4 10 -3 0
-8 -4 -11 -10z"/>
</g>
</svg>
